<?xml version="1.0" encoding="UTF-8"?>
<!-- Generator: Adobe Illustrator 26.3.1, SVG Export Plug-In . SVG Version: 6.00 Build 0)  -->
<svg version="1.1" xmlns="http://www.w3.org/2000/svg" xmlns:xlink="http://www.w3.org/1999/xlink" x="0px" y="0px" width="800px" height="220px" viewBox="0 0 800 220" style="enable-background:new 0 0 800 220;" xml:space="preserve">
<style type="text/css">
	.st0{enable-background:new    ;}
	.st1{fill:#FFFFFF;}
	.st2{fill:#080808;}
	.st3{opacity:0.44;fill:#FFE73B;enable-background:new    ;}
	.st4{opacity:0.44;fill:#0000FF;enable-background:new    ;}
	.st5{clip-path:url(#SVGID_00000003085552810490996250000012927413674085325758_);}
	.st6{clip-path:url(#SVGID_00000029014509372087778800000013683945501486506630_);}
	.st7{opacity:0.44;fill:#FF39AF;enable-background:new    ;}
	.st8{display:none;}
	.st9{display:inline;}
	.st10{font-family:'BebasNeue';}
	.st11{font-size:110px;}
	.st12{letter-spacing:-1;}
	.st13{clip-path:url(#SVGID_00000041293397250110082600000007054678639852204438_);}
	.st14{clip-path:url(#SVGID_00000044137729736589648150000013159483904308843190_);}
</style>
<g id="レイヤー_1">
	<g id="_x2F_top-story" transform="translate(-43.541 -1869.978)">
		<path id="合体_13" class="st2" d="M192.1951447,2052.0200195c-0.6190186-0.4050293-1.2409668-0.8110352-1.8840332-1.2290039    c-3.6999512-1.3398438-6.7869873-3.0529785-7.651001-6.1599121c-2.3360596-0.7050781-3.552002-1.9899902-3.8430176-3.7550049    c-5.7939453-4.44104-10.9449463-9.177002-13.473999-15.1080322c-3.8740234-2.68396-8.1159668-5.1230469-11.1590576-8.3609619    c3.4919434-0.434082,8.2290039,0.0880127,6.5699463-4.3000488c-4.2330322-1.4119873-8.092041-3.1390381-10.9890137-5.677002    c-10.8640137,1.0999756-20.4250488,1.7550049-20.1259766,0.3070068c0.3850098-1.8580322,2.6190186-1.6290283,4.8669434-1.4000244    c0.9604492,0.1347656,1.9317627,0.1746826,2.9000244,0.1190186c1.5413818-1.0588379,3.4919434-1.3286133,5.2629395-0.7280273    c3.1639404,1.19104,2.9940186,0.5839844,2.3530273-0.2709961c-2.5679932-0.7209473-3.2600098-2.9630127-4.7609863-4.5469971    l-0.8769531,0.0750732l-0.8800049-0.1240234c-3.1669922,0.3249512-5.9050293-0.7740479-8.8499756-1.1850586    c1.447998-1.2799072,3.31604-1.256958,5.1850586-1.2290039c0.6610107,0.0080566,1.3210449,0.0180664,1.9639893-0.0279541    c0.5722656-0.0900879,1.154541-0.0977783,1.7290039-0.0229492c0.5461426-0.1676025,1.1099854-0.2706299,1.6800537-0.3070068    c2.3189697-2.6240234,7.1719971-1.8310547,10.131958-3.5930176c-0.0880127-0.15271-0.1696777-0.3083496-0.2449951-0.467041    c-1.4841309-1.3465576-3.1010742-2.5390625-4.8260498-3.55896c-1.2159424-0.5910645-2.1130371-1.1669922-2.131958-1.7449951    c-0.7869873-0.0910645-1.6159668-0.1530762-2.4589844-0.2110596c1.9022217-1.8937988,2.9554443-4.4780273,2.9189453-7.1619873    l0.7519531-0.5389404c-0.0489502-0.0631104-0.0939941-0.125-0.1359863-0.1860352    c-1.2099609-1.7580566-4.6789551,0.1209717-7.1120605,0.5880127c-4.0279541,0.7739258-6.2889404,4.6999512-12.1999512,3.0269775    c7.7290039-0.1159668,0.9599609-7.5999756,8.2399902-7.9460449c-3.8289795-1.8999023-8.9160156-0.3609619-12.4000244-2.605957    l-3.5479736-1.0999756c-1.4219971-0.118042-2.8439941-0.2373047-4.2659912-0.3580322    c-2.4439697-2.4730225,20.1650391-6.993042,16.2340088-7.1589355c-5.6121826-0.3662109-11.1270752-1.6446533-16.3280029-3.7850342    c-3.9360352-1.4890137,8.8890381-5.9489746,4.7540283-6.3720703c-6.743042-2.032959,13.0200195-10.440918,14.3719482-16.5930176    c0.4749756-2.1599121-1.2049561-3.651001-3.1999512-5.0449219c-1.3470459-1-1.7719727-2.5810547-3.723999-3.2000732    c-0.8413086-0.1641846-1.6271973-0.5391846-2.2840576-1.0899658c-0.3511963-0.6479492-0.8001709-1.237793-1.3310547-1.7490234    c-4.1810303-2.7999268-7.8869629-5.7109375-4.6870117-10.1469727c0.4328613-0.1497803,0.8760986-0.2680664,1.3260498-0.3540039    c-0.0600586-0.0639648-0.1209717-0.1290283-0.1779785-0.1929932c-4.5369873-3.4139404-10.5319824-1.9310303-15.7399902-3.0999756    c0.6999512-3.3709717,3.7370605-4.2869873,7.9870605-4.3800049c0.6519775,0.0021973,1.3032227,0.039917,1.9510498,0.1130371    c2.5999756,0.2349854,5.4060059,0.4730225,4.3520508-3.2930908c-0.3000488-1.0759277,1.5839844-1.1429443,2.4919434-0.8540039    c7.3189697,2.3380127,15.5080566,1.9940186,22.7619629,4.4820557c0.7957764,0.0946045,1.5535889,0.3931885,2.1999512,0.8669434    l6.4100342,0.4460449c1.5852051-0.9411621,3.5040283-1.1375732,5.2469482-0.5369873l11.092041,2.4289551    c2.0866699,0.020752,4.1776123,0.0419922,6.2729492,0.0640869l0.1650391-3.3000488    c-2.0313721-0.1826172-4.0646973-0.3634033-6.0999756-0.5419922c5.2619629-2.5230713,11.2209473-2.2780762,17.3120117-2.0209961    c6.9000244,0.2949219,13.5629883,3.3399658,19.9460449,3.0709229c16.7399902-0.7069092,33.144043,2.0670166,49.6999512,2.9630127    c0.7613525,0.0184326,1.5200195,0.0966797,2.2690277,0.2340088c4.1190186,0.822998,9.7729492-0.8519287,11.3320312,4.1320801    c14.3046875,1.1999512,28.6083984,2.397583,42.9110107,3.5928955c4.1760254-1.7109375,8.7619629-0.8389893,13.1750488-0.513916    c11.2209473,0.8309326,22.4310303,1.8289795,33.6369629,2.8309326c4.5059814,0.4000244,8.9799805,0.9000244,13.2230225-0.5    c0.0419922-0.5599365,0.0909424-1.1140137,0.1469727-1.6719971l13.7110596,1.1380615    c11.5410156,0.230957,7.75-1.0860596,3.5179443-2.06604c2.4599609,0.1096191,4.9179688-0.2567139,7.2390137-1.0789795    c7.6800537-3.006958,16.1450195-2.3000488,24.3000488-1.9100342c6.2320557,0.3000488,13.0999756-0.5620117,18.7299805,2.9859619    c11.1560059,1.1199951,22.18396,3.5460205,33.5250244,3c0.5209961-0.0249023,1.0269775-0.0209961,1.5179443-0.0159912    c1.8580322,0.0230713,3.5179443,0.0469971,5.1560059-1.6259766c4.4779053-4.5780029,10.7301025-4.526001,17.2440186-1.3540039    c3.9899902-0.1240234,7.0219727,2.3000488,10.8588867,2.5910645c0.9599609,0.4699707,1.9460449,0.9139404,2.875,1.4139404    c6.9741211,3.7680664,7.230957,6.5369873,1.1411133,10.3000488c-3.3701172,2.0849609-6.5620117,4.3249512-9.8349609,6.4929199    c-0.7922363,0.2288818-1.6452637,0.0957031-2.3300781-0.3640137c-0.0500488,0.1450195-0.1000977,0.2890625-0.1411133,0.4320068    c1.7414551,0.0667725,3.484375,0.1700439,5.2290039,0.3100586c2.8891602,0.0969238,5.7790527-0.1738281,8.6000977-0.8060303    c2.4658203-0.5092773,4.9719238-0.7983398,7.4890137-0.8640137c4.8820801,0.0130615,9.6621094,0.0280762,13.7780762,2.1450195    c-1.2001953,0.052002-2.3999023,0.1026611-3.6000977,0.1519775c-0.5500488,0.8590088-1.1000977,1.7160645-1.6489258,2.5780029    c1.2241211,0.0380859,2.4519043,0.0770264,3.6779785,0.118042l9.0270996-0.5720215    c1.6860352-1.3182373,4.0224609-1.4222412,5.8190918-0.2590332l5.1999512-0.1569824    c0.5288086-0.3215332,1.126709-0.5128174,1.7438965-0.5579834c5.8999023-1.6560059,12.4440918-1.1119385,18.3930664-2.6550293    c0.7380371-0.190918,2.2480469-0.0749512,1.9641113,0.7380371c-0.9929199,2.8609619,1.2770996,2.769043,3.3679199,2.6760254    c0.552002-0.0230713,1.092041-0.0460205,1.5539551-0.0180664c3.3999023,0.2189941,5.8000488,1.0240479,6.2250977,3.6340332    c-1.5136719,0.210083-3.0424805,0.2927246-4.5700684,0.2470703c-2.8520508,0-5.7060547-0.0100098-8.1469727,1.5869141    l-0.1489258,0.1430664c0.3552246,0.0811768,0.7043457,0.1870117,1.0449219,0.3170166    c2.3930664,3.5109863-0.6870117,5.6149902-4.1398926,7.6229248c-0.4431152,0.3724365-0.8261719,0.8109131-1.1359863,1.3000488    c-0.5512695,0.4013672-1.192627,0.6610107-1.8679199,0.7559814c-1.5869141,0.4050293-1.9890137,1.5999756-3.1000977,2.3249512    c-1.6459961,1-3.0480957,2.085083-2.7509766,3.7630615c0.8439941,4.7640381,16.3391113,11.8919678,10.8649902,13.2209473    c-3.3269043,0.1810303,6.763916,4.0410156,3.5559082,5.0510254c-4.2561035,1.4658203-8.715332,2.2563477-13.2160645,2.3430176    c-3.1530762-0.0100098,14.7719727,4.2369385,12.7209473,6.0469971l-3.6730957,0.1390381    c-0.5939941,0.0339355-1.1875,0.0709229-1.7800293,0.1109619c-2.8879395,2.5209961-7.4169922,0.7120361-10.8859863,2.1779785    c5.8139648,0.5140381,0.1079102,6.0230713,6.2919922,6.3770752c-4.8000488,1.0839844-6.4589844-2.0080566-9.6540527-2.7370605    c-1.9309082-0.4439697-4.6330566-2.0059814-5.6699219-0.6999512c-1.0368652,1.3059082-4.6760254,3.4069824-0.4589844,5.3070068    c1.8510742,0.8359375,0.8999023,1.5219727-0.7670898,2.2089844c-1.4150391,0.7197266-2.7548828,1.5782471-4,2.5629883    c-0.8005371,1.329834-2.0761719,2.3062744-3.5690918,2.7319336l-0.1000977-2.381958c-0.0690918,0-0.1420898,0-0.2141113,0    c-1.8688965,1.6159668-7.1540527,1.5129395-5.1640625,5.0629883l2.1159668,1.2390137    c1.2019043-0.0482178,2.3859863,0.3034668,3.3669434,1c1.2380371-0.5876465,2.6826172-0.5463867,3.8850098,0.1109619    c1.2253418-0.0466309,2.4509277-0.0949707,3.677002-0.1450195c0.9829102-0.1448975,0.4370117,0.434082-0.1000977,1.0090332    c-0.7089844,0.7669678-1.3911133,1.532959,1.6000977,0.5999756c1.4353027-0.3988037,2.973877-0.1275635,4.1860352,0.7380371    c0.7719727,0.0767822,1.5495605,0.0794678,2.3220215,0.0080566c1.8068848-0.1000977,3.6079102-0.2000732,3.8430176,1.2409668    c0.2319336,1.4000244-11.8139648-0.25-22.7700195-1.9000244c-8.361084-1.2650146-16.0849609-2.526001-17.2290039-2.4289551    c-1.425293,0.0217285-2.8007812,0.5281982-3.8999023,1.4359131c0.8540039,2.1540527-2.3540039,1.6530762-3.3859863,2.5800781    c-1.5690918,1.6049805-3.7880859,1.5819092-6.0209961,1.55896c-0.4819336,0-0.9680176-0.0100098-1.4450684,0    c0.0742188,0.8927002,0.1489258,1.7840576,0.2250977,2.6739502c-2.0390625,0.1000977-4.0749512,0.269043-6.111084,0.2810059    c-3.9838867,0.0280762-4.9350586,1.7080078-4.7119141,4.0900879c-4.0668945,1.7709961-8.5371094,1.7169189-13.0100098,1.6369629    c-4.9250488-0.0209961-13.5999756-0.7619629-22.7139893-1.4160156c-2.9090576,0.840332-5.6656494,2.1390381-8.1660156,3.8470459    c-0.4730225,2.2810059-2.0670166,3.8839111-5.0250244,4.6710205c-1.2709961,3.9919434-5.2349854,6.052002-9.9250488,7.5849609    c-0.8260498,0.5109863-1.6259766,1-2.4289551,1.4940186c-16.6400146,5.7999268-33.5510254,3.8658447-50.5579834-0.8540039    c-10.8166504-3.666748-21.6325684-7.3353271-32.447998-11.0059814    c-5.4040527,0.2565918-10.8083496,0.4996338-16.2130127,0.7290039    c-13.9000244,0.6088867-26.8530273,4.052002-40.3000488,5.9539795c-7.4630127,1.0579834-14.7919922,2.657959-22.1810303,4.0159912    c-3.7600098,0.3380127-7.1870117,1.8449707-11.0679932,1.7469482c-9.0740814,2.5186768-18.1475677,5.0384521-27.220932,7.55896    c-6.6556396,1.5571289-13.4603271,2.3894043-20.2950439,2.4821777    C205.5141144,2055.6535645,198.6574249,2054.4470215,192.1951447,2052.0200195z M382.9431763,1919.1480713    c0,0,2.526001,0.4449463,4.9110107,1c-1.6878662,0.0041504-3.3588867-0.3356934-4.9110107-0.9990234V1919.1480713z"/>
		<g id="グループ_270">
			<g class="st0">
				<path class="st1" d="M211.7153168,1940.1264648c11.7700195,0,17.8198242,7.0400391,17.8198242,19.3603516v2.4199219h-11.4399414      v-3.1894531c0-5.5-2.199707-7.5908203-6.0498047-7.5908203s-6.050293,2.0908203-6.050293,7.5908203      c0,5.609375,2.4199219,9.7900391,10.340332,16.7197266c10.1201172,8.9101562,13.3100586,15.2900391,13.3100586,24.0898438      c0,12.3203125-6.1601562,19.3603516-18.0400391,19.3603516c-11.8803711,0-18.0405273-7.0400391-18.0405273-19.3603516      v-4.7294922h11.4404297v5.5c0,5.5,2.4199219,7.4794922,6.2700195,7.4794922s6.2700195-1.9794922,6.2700195-7.4794922      c0-5.6103516-2.4199219-9.7900391-10.340332-16.7207031c-10.1201172-8.9091797-13.3100586-15.2900391-13.3100586-24.0898438      C193.8950043,1947.1665039,199.9452972,1940.1264648,211.7153168,1940.1264648z"/>
				<path class="st1" d="M231.9540863,1941.0073242h37.4003754v11h-12.6499023v66h-12.1000824v-66h-12.6503906V1941.0073242z"/>
				<path class="st1" d="M272.5429382,1959.4868164c0-12.3203125,6.4897461-19.3603516,18.3701172-19.3603516      c11.8798828,0,18.3701172,7.0400391,18.3701172,19.3603516v40.0400391c0,12.3203125-6.4902344,19.3603516-18.3701172,19.3603516      c-11.8803711,0-18.3701172-7.0400391-18.3701172-19.3603516V1959.4868164z M284.6430359,2000.2973633      c0,5.5,2.4199219,7.5898438,6.2700195,7.5898438s6.2700195-2.0898438,6.2700195-7.5898438v-41.5800781      c0-5.5-2.4199219-7.5908203-6.2700195-7.5908203s-6.2700195,2.0908203-6.2700195,7.5908203V2000.2973633z"/>
				<path class="st1" d="M341.2929382,2018.0073242c-0.6601562-1.9804688-1.1000977-3.1904297-1.1000977-9.4599609v-12.1005859      c0-7.1494141-2.4199219-9.7900391-7.9199219-9.7900391h-4.1801758v31.3505859h-12.1000977v-77h18.2602539      c12.5400391,0,17.9301758,5.8300781,17.9301758,17.7099609v6.0498047c0,7.9199219-2.5302734,12.9804688-7.9199219,15.5097656      v0.2207031c6.0498047,2.5292969,8.0297852,8.25,8.0297852,16.2792969v11.8808594      c0,3.7392578,0.1098633,6.4892578,1.3198242,9.3496094H341.2929382z M328.0927429,1952.0073242v23.6494141h4.7299805      c4.5102539,0,7.2602539-1.9794922,7.2602539-8.1396484v-7.5898438c0-5.5-1.8701172-7.9199219-6.1601562-7.9199219H328.0927429z"/>
				<path class="st1" d="M369.3422546,1992.4868164l-15.2900391-51.4794922h12.6499023l9.1303711,35.0898438h0.2197266      l9.1303711-35.0898438h11.5498047l-15.2900391,51.4794922v25.5205078h-12.1000977V1992.4868164z"/>
			</g>
		</g>
		<g class="st0">
			<path class="st1" d="M419.8869324,1990.5541992c-1.152832-2.0166016-2.1928711-3.3291016-3.2172852-4.4658203     c-1.6489258,2.2890625-3.7617188,3.7783203-5.5546875,4.5458984l-1.3920898-1.96875     c4.8178711-1.7119141,6.7866211-5.6660156,7.3305664-8.6435547l-5.8740234,0.0644531v-2.1767578h8.5473633     c-0.3520508,2.5927734-0.9765625,4.5615234-1.8886719,6.3222656c1.168457,1.0888672,2.5610352,2.6416016,3.7294922,4.3535156     L419.8869324,1990.5541992z"/>
			<path class="st1" d="M431.2624207,1986.1850586c-1.9365234-1.3125-4.2895508-2.3691406-6.0986328-3.1054688v7.9873047     l-2.2407227-0.015625v-14.4541016h2.2407227v4.1298828c1.6005859,0.5761719,5.1381836,2,7.203125,3.2324219     L431.2624207,1986.1850586z"/>
			<path class="st1" d="M433.1789246,1984.8725586v-2.1455078h11.1723633v2.1455078H433.1789246z"/>
			<path class="st1" d="M445.658905,1985.4008789v-8.4833984h2.1767578v8.4833984H445.658905z M446.0270691,1989.1459961     c4.8662109-0.5605469,5.7143555-3.4736328,5.746582-5.9863281v-6.2744141h2.1928711c0,0,0.0317383,3.0253906,0.0317383,4.9619141     c0,3.8251953-0.2402344,7.9873047-6.6103516,9.3955078L446.0270691,1989.1459961z"/>
			<path class="st1" d="M454.9386902,1984.8725586v-2.1455078h11.1723633v2.1455078H454.9386902z"/>
		</g>
	</g>
</g>
<g id="レイヤー_2" class="st8">
	
		<g id="_x2F_top-story_00000116920452351761721450000009337496175025326745_" transform="translate(-43.541 -1869.978)" class="st9">
		<path id="合体_13_00000065057218155460181310000005005897152813588650_" class="st2" d="M192.8746185,2202.0200195    c-0.6190186-0.4050293-1.2409668-0.8110352-1.8840332-1.2290039c-3.6999512-1.3398438-6.7869873-3.0529785-7.651001-6.1599121    c-2.3360596-0.7050781-3.552002-1.9899902-3.8430176-3.755127c-5.7939453-4.440918-10.9449463-9.177002-13.473999-15.1079102    c-3.8740234-2.684082-8.1159668-5.1230469-11.1590576-8.361084c3.4919434-0.4338379,8.2290039,0.0881348,6.5699463-4.2998047    c-4.2330322-1.4121094-8.092041-3.1391602-10.9890137-5.677002c-10.8640137,1.0998535-20.4250488,1.7548828-20.1259766,0.3068848    c0.3850098-1.8579102,2.6190186-1.6289062,4.8669434-1.3999023c0.9604492,0.1347656,1.9317627,0.1745605,2.9000244,0.1188965    c1.5413818-1.0588379,3.4919434-1.3286133,5.2629395-0.7280273c3.1639404,1.190918,2.9940186,0.5839844,2.3530273-0.2709961    c-2.5679932-0.7209473-3.2600098-2.9628906-4.7609863-4.546875l-0.8769531,0.0749512l-0.8800049-0.1240234    c-3.1669922,0.3249512-5.9050293-0.7739258-8.8499756-1.1850586c1.447998-1.2800293,3.31604-1.2570801,5.1850586-1.2290039    c0.6610107,0.0080566,1.3210449,0.0180664,1.9639893-0.0280762c0.5722656-0.0898438,1.154541-0.0976562,1.7290039-0.0229492    c0.5461426-0.1674805,1.1099854-0.2705078,1.6800537-0.3068848c2.3189697-2.6240234,7.1719971-1.8310547,10.131958-3.5930176    c-0.0880127-0.1525879-0.1696777-0.3083496-0.2449951-0.467041c-1.4841309-1.3466797-3.1010742-2.5390625-4.8260498-3.559082    c-1.2159424-0.5908203-2.1130371-1.1669922-2.131958-1.744873c-0.7869873-0.0910645-1.6159668-0.1530762-2.4589844-0.2109375    c1.9022217-1.894043,2.9554443-4.4780273,2.9189453-7.1621094l0.7519531-0.5390625    c-0.0489502-0.0629883-0.0939941-0.125-0.1359863-0.1860352c-1.2099609-1.7578125-4.6789551,0.1210938-7.1120605,0.5881348    c-4.0279541,0.7739258-6.2889404,4.6999512-12.1999512,3.0268555c7.7290039-0.1159668,0.9599609-7.5998535,8.2399902-7.9458008    c-3.8289795-1.9001465-8.9160156-0.361084-12.4000244-2.6062012l-3.5479736-1.0998535    c-1.4219971-0.1179199-2.8439941-0.2373047-4.2659912-0.3579102c-2.4439697-2.4731445,20.1650391-6.9931641,16.2340088-7.1591797    c-5.6121826-0.3659668-11.1270752-1.6445312-16.3280029-3.7849121c-3.9360352-1.4890137,8.8890381-5.9489746,4.7540283-6.3720703    c-6.743042-2.032959,13.0200195-10.440918,14.3719482-16.5930176c0.4749756-2.1599121-1.2049561-3.6508789-3.1999512-5.0449219    c-1.3470459-1-1.7719727-2.5810547-3.723999-3.1999512c-0.8413086-0.1643066-1.6271973-0.5393066-2.2840576-1.0900879    c-0.3511963-0.6479492-0.8001709-1.237793-1.3310547-1.7490234c-4.1810303-2.8000488-7.8869629-5.7109375-4.6870117-10.1469727    c0.4328613-0.1496582,0.8760986-0.2680664,1.3260498-0.3540039c-0.0600586-0.0639648-0.1209717-0.1289062-0.1779785-0.1928711    c-4.5369873-3.4140625-10.5319824-1.9311523-15.7399902-3.1000977c0.6999512-3.3710938,3.7370605-4.2871094,7.9870605-4.380127    c0.6519775,0.0024414,1.3032227,0.0400391,1.9510498,0.1130371c2.5999756,0.2351074,5.4060059,0.4731445,4.3520508-3.2929688    c-0.3000488-1.0759277,1.5839844-1.1430664,2.4919434-0.8540039c7.3189697,2.3381348,15.5080566,1.9941406,22.7619629,4.4819336    c0.7957764,0.0947266,1.5535889,0.3933105,2.1999512,0.8671875l6.4100342,0.4460449    c1.5852051-0.9411621,3.5040283-1.1376953,5.2469482-0.5371094l11.092041,2.4289551    c2.0866699,0.020752,4.1776123,0.0419922,6.2729492,0.0639648l0.1650391-3.3000488    c-2.0313721-0.1826172-4.0646973-0.3632812-6.0999756-0.5419922c5.2619629-2.5229492,11.2209473-2.277832,17.3120117-2.0209961    c6.9000244,0.295166,13.5629883,3.3400879,19.9460449,3.0710449c16.7399902-0.7070312,33.144043,2.0671387,49.6999512,2.9631348    c0.7613525,0.0183105,1.5200043,0.0964355,2.2690277,0.2338867c4.1190186,0.822998,9.7729492-0.8520508,11.3320312,4.1320801    c14.3046875,1.1999512,28.6083984,2.3977051,42.9110107,3.5930176c4.1760254-1.7111816,8.7619629-0.8391113,13.1750488-0.5141602    c11.2209473,0.8310547,22.4310303,1.8291016,33.6369629,2.8310547c4.5059814,0.3999023,8.9799805,0.8999023,13.2230225-0.5    c0.0419922-0.5600586,0.0909424-1.1140137,0.1469727-1.671875l13.7110596,1.1379395    c11.5410156,0.230957,7.75-1.0859375,3.5179443-2.065918c2.4599609,0.1096191,4.9179688-0.2568359,7.2390137-1.0791016    c7.6800537-3.0070801,16.1450195-2.3000488,24.3000488-1.9099121c6.2320557,0.2998047,13.0999756-0.5620117,18.7299805,2.9858398    c11.1560059,1.1201172,22.18396,3.5461426,33.5250244,3c0.5209961-0.0249023,1.0269775-0.0209961,1.5179443-0.0158691    c1.8580322,0.0229492,3.5179443,0.046875,5.1560059-1.6259766c4.4779053-4.578125,10.7301025-4.526123,17.2440186-1.3540039    c3.9899902-0.1240234,7.0219727,2.2998047,10.8588867,2.5908203c0.9599609,0.4699707,1.9460449,0.9140625,2.875,1.4140625    c6.9741516,3.7680664,7.2309875,6.5371094,1.1411133,10.3000488c-3.3701172,2.0849609-6.5620117,4.3249512-9.8349609,6.4929199    c-0.7922363,0.2290039-1.6452637,0.0957031-2.3300781-0.3640137c-0.0500488,0.1450195-0.1000977,0.2890625-0.1411133,0.4321289    c1.7414551,0.0666504,3.484375,0.1699219,5.2290039,0.3098145c2.8891602,0.097168,5.7790527-0.1738281,8.6001282-0.8059082    c2.4658203-0.5092773,4.9719238-0.7983398,7.4890137-0.8640137c4.8820801,0.0129395,9.6621094,0.0280762,13.7780762,2.1450195    c-1.2001953,0.052002-2.3999023,0.1027832-3.6000977,0.1520996c-0.5500488,0.8588867-1.1000977,1.7158203-1.6489258,2.5778809    c1.2241211,0.0380859,2.4519043,0.0771484,3.6779785,0.1179199l9.0270996-0.5717773    c1.6860352-1.3183594,4.0224609-1.4223633,5.8190918-0.2590332l5.1999512-0.1569824    c0.5288086-0.3217773,1.126709-0.5129395,1.7438965-0.5581055c5.8999023-1.6560059,12.4440918-1.1120605,18.3930664-2.6550293    c0.7380371-0.190918,2.2480469-0.0749512,1.9641113,0.7380371c-0.9929199,2.861084,1.2770996,2.769043,3.3679199,2.6760254    c0.552002-0.0229492,1.092041-0.0458984,1.5539551-0.0180664c3.3999023,0.2189941,5.8000488,1.0241699,6.2250977,3.6340332    c-1.5136719,0.2102051-3.0424805,0.2927246-4.5700684,0.2470703c-2.8520508,0-5.7060547-0.0100098-8.1469727,1.5869141    l-0.1489258,0.1430664c0.3552246,0.0810547,0.7043457,0.1870117,1.0449219,0.3168945    c2.3930664,3.5109863-0.6870117,5.6149902-4.1398926,7.6230469c-0.4431152,0.3725586-0.8261719,0.8110352-1.1359863,1.3000488    c-0.5512695,0.4013672-1.192627,0.6611328-1.8679199,0.7558594c-1.5869141,0.4050293-1.9890137,1.6000977-3.1000977,2.3251953    c-1.6459961,1-3.0480957,2.0849609-2.7509766,3.7629395c0.8439941,4.763916,16.3391113,11.8920898,10.8649902,13.2209473    c-3.3269043,0.1811523,6.763916,4.0410156,3.5559082,5.0510254c-4.2561035,1.4658203-8.715332,2.2563477-13.2160645,2.3430176    c-3.1530762-0.0100098,14.7719727,4.2370605,12.7209473,6.046875l-3.6730957,0.1391602    c-0.5939941,0.0339355-1.1875,0.0710449-1.7800293,0.1108398c-2.8879395,2.5212402-7.4169922,0.7121582-10.8859863,2.1782227    c5.8139648,0.513916,0.1079102,6.0229492,6.2919922,6.3769531c-4.8000488,1.0839844-6.4589844-2.0080566-9.6540527-2.7370605    c-1.9309082-0.4440918-4.6330566-2.0061035-5.6699219-0.6999512c-1.0368652,1.3059082-4.6760254,3.4069824-0.4589844,5.3068848    c1.8510742,0.8361816,0.8999023,1.5219727-0.7670898,2.2089844c-1.4150391,0.7197266-2.7548828,1.5783691-4,2.5629883    c-0.8005371,1.3300781-2.0761719,2.3063965-3.5690918,2.7321777l-0.1000977-2.3820801c-0.0690918,0-0.1420898,0-0.2141113,0    c-1.8688965,1.6159668-7.1540527,1.5129395-5.1640625,5.0629883l2.1159668,1.2390137    c1.2019043-0.0480957,2.3859863,0.3034668,3.3669434,1c1.2380371-0.5876465,2.6826172-0.5463867,3.8850098,0.111084    c1.2253418-0.046875,2.4509277-0.0949707,3.677002-0.1450195c0.9829102-0.1450195,0.4370117,0.4338379-0.1000977,1.0090332    c-0.7089844,0.7668457-1.3911133,1.532959,1.6000977,0.5998535c1.4353027-0.3989258,2.973877-0.1276855,4.1860352,0.7380371    c0.7719727,0.0769043,1.5495605,0.0795898,2.3220215,0.0080566c1.8068848-0.1000977,3.6079102-0.1999512,3.8430176,1.2409668    c0.2319336,1.3999023-11.8139648-0.25-22.7700195-1.8999023c-8.361084-1.2651367-16.0849609-2.526123-17.2290039-2.4291992    c-1.425293,0.0217285-2.8007812,0.5283203-3.8999023,1.4360352c0.8540039,2.1540527-2.3540039,1.6530762-3.3859863,2.5800781    c-1.5691223,1.6049805-3.7881165,1.5820312-6.0210266,1.559082c-0.4819336,0-0.9680176-0.0100098-1.4450684,0    c0.0742188,0.8925781,0.1489258,1.7839355,0.2250977,2.6738281c-2.0390625,0.1000977-4.0749512,0.269043-6.111084,0.2810059    c-3.9838867,0.0280762-4.9350586,1.7080078-4.7119141,4.0900879c-4.0668945,1.7709961-8.5371094,1.717041-13.0100098,1.6369629    c-4.9250488-0.0209961-13.5999756-0.7619629-22.7139893-1.4160156c-2.9090576,0.840332-5.6656494,2.138916-8.1660156,3.8469238    c-0.4730225,2.2810059-2.0670166,3.8840332-5.0250244,4.6711426c-1.2709961,3.9919434-5.2349854,6.052002-9.9250488,7.5849609    c-0.8260498,0.5109863-1.6259766,1-2.4289551,1.4938965c-16.6400146,5.8000488-33.5510254,3.8659668-50.5579834-0.8540039    c-10.8166504-3.6665039-21.6325684-7.3352051-32.447998-11.0058594    c-5.4040527,0.2565918-10.8083496,0.4995117-16.2130127,0.7290039    c-13.9000244,0.6088867-26.8530273,4.052002-40.3000488,5.9538574    c-7.4630127,1.0581055-14.7919922,2.6582031-22.1810303,4.0161133c-3.7600098,0.3378906-7.1870117,1.8449707-11.0679932,1.7470703    c-9.0740814,2.5185547-18.1475677,5.0383301-27.220932,7.5588379c-6.6556396,1.5571289-13.4603271,2.3894043-20.2950439,2.4821777    C206.1935883,2205.6535645,199.3368988,2204.4470215,192.8746185,2202.0200195z M383.6226501,2069.1479492    c0,0,2.526001,0.4450684,4.9110107,1c-1.6878662,0.0043945-3.3588867-0.3356934-4.9110107-0.9987793V2069.1479492z"/>
		<g id="グループ_270_00000049944372287219437770000001405423627761973418_">
			<text transform="matrix(1 0 0 1 191.7148285 2168.0073242)" class="st1 st10 st11 st12">STORY</text>
		</g>
	</g>
	
		<g id="_x2F_top-others_00000158731038650590704150000007939768859066786443_" transform="translate(-55.257 -2108.749)" class="st9">
		<g id="グループ_3858" transform="translate(74.575 7031.565)">
			<g>
				<defs>
					
						<rect id="SVGID_00000170270283075262918930000013444804861126915751_" x="777.6956787" y="-4745.090332" width="488.2709961" height="171.2810059"/>
				</defs>
				<clipPath id="SVGID_00000099635495676120880410000014994738073666596017_">
					<use xlink:href="#SVGID_00000170270283075262918930000013444804861126915751_" style="overflow:visible;"/>
				</clipPath>
				<g id="グループ_3858-2" style="clip-path:url(#SVGID_00000099635495676120880410000014994738073666596017_);">
					<path id="パス_4965" class="st2" d="M1259.9036865-4620.6352539       c-3.7700195,0.3310547-7.5440674,0.6616211-10.9000244-0.9760742       c-0.0679932-0.0551758-0.1419678-0.1000977-0.2099609-0.1552734c0.4624023-0.1386719,0.9158936-0.3056641,1.3580322-0.5       c2.8800049-4.4926758-1.3590088-6.6689453-6.0900879-8.6806641c-0.6047363-0.3896484-1.1446533-0.871582-1.5999756-1.4282227       c-0.7791748-0.4262695-1.6466064-0.6655273-2.5339355-0.699707c-2.1300049-0.3051758-2.7580566-1.6953125-4.2919922-2.4370117       c-2.2580566-1.0131836-4.2000732-2.1572266-3.9390869-4.2001953       c0.7330322-5.815918,20.6550293-16.1411133,13.3070068-17.1162109c-4.4129639,0.1621094,8.625-5.6230469,4.3000488-6.4677734       c-5.7956543-1.2797852-11.7451172-1.7202148-17.6660156-1.3071289       c-4.1710205,0.3710938,19.1999512-6.7700195,16.3370361-8.7128906l-4.6000977,0.2397461l-4.1429443-0.6699219       c-1.9920654-0.699707-4.282959-0.5268555-6.5999756-0.3588867c-2.1508789,0.2900391-4.3359375,0.2011719-6.4560547-0.2631836       c7.6480713-1.2739258-0.3389893-7.2436523,7.8079834-8.3735352c-6.4359131-0.7524414-8.3809814,3.1469727-12.5479736,4.390625       c-1.2540283,0.3730469-2.7409668,1.1000977-4.0999756,1.5620117c-1.0340576-0.859375-1.7907715-2.0053711-2.1750488-3.2939453       c-0.2719727-1.6708984,1.1320801-2.7851562,2.776001-3.8168945c1.1170654-0.7460938,1.5310059-1.953125,3.1080322-2.3881836       c0.6765137-0.1132812,1.3157959-0.3876953,1.8640137-0.7998047c0.3118896-0.4936523,0.6958008-0.9379883,1.1390381-1.3178711       c3.4470215-2.0761719,6.5250244-4.2421875,4.1999512-7.7114258c-0.3361816-0.1245117-0.6811523-0.2250977-1.0319824-0.2998047       c0.0510254-0.0458984,0.0999756-0.1000977,0.151001-0.1459961c3.7609863-2.5371094,8.4429932-1.2861328,12.6290283-2.0859375       c-0.3919678-2.6000977-2.756958-3.3598633-6.1220703-3.512207c-0.5155029-0.0097656-1.0311279,0.0063477-1.5449219,0.0493164       c-2.0750732,0.1337891-4.3210449,0.2670898-3.3000488-2.6113281c0.2919922-0.8188477-1.1999512-0.8999023-1.9360352-0.699707       c-5.914917,1.6630859-12.3919678,1.2441406-18.263916,3.0209961c-0.6175537,0.0576172-1.2126465,0.2607422-1.7370605,0.5917969       l-5.1539307,0.2602539c-1.6827393-1.0532227-3.8325195-0.9951172-5.4560547,0.1469727       c-3.8031006-0.7402344-7.663208-1.1499023-11.5369873-1.2250977l0.2929688-0.4589844       c1.1860352-0.0722656,2.3747559-0.1455078,3.56604-0.2211914c-1.2955322-0.6386719-2.6707764-1.1010742-4.0889893-1.375       c5.5700684-2.1728516,13.5860596-5.2890625,11.842041-6.4726562c-1.5333252,0.0810547-3.0666504,0.1606445-4.5999756,0.237793       l-4.1450195-0.6708984c-1.9920654-0.6953125-4.282959-0.5268555-6.5999756-0.3579102       c-2.1516113,0.2890625-4.3371582,0.199707-6.4580078-0.2631836c7.6489258-1.2739258-0.3380127-7.2441406,7.80896-8.3740234       c-6.4350586-0.7529297-8.3809814,3.1459961-12.5479736,4.3901367c-2.5170898,0.75-5.973999,2.9208984-7.4400635,1.4819336       c-1.4659424-1.4389648-6.4599609-3.5541992-1.0369873-6.3168945c2.381958-1.2133789,1.06604-1.9311523-1.1889648-2.5649414       c-1.9138184-0.6953125-3.7557373-1.5737305-5.5-2.6240234c-1.2294922-1.5429688-2.9931641-2.5678711-4.9421387-2.8720703       l0.059082,2.8686523l-0.1850586,0.0883789c-2.4799805-1.7910156-9.5239258-1.0302734-7.4239502-5.3823242l3-1.9257812       c1.5087891-0.1025391,2.9543457-0.6455078,4.157959-1.5610352c1.4776611,0.5029297,3.0938721,0.4047852,4.5-0.2729492       l4.927002-0.6069336c2.0830078,0.2709961,1.2109375-0.4389648,0.368042-1.1469727       c-1-0.8413086-1.9530029-1.6811523,2.0649414-0.9003906c1.9344482,0.3168945,3.9139404-0.175293,5.4749756-1.3608398       c2.8460693-0.6289062,7.769043,0.3510742,8.0560303-2.199707c0.3380127-3.0253906-49.0410156,9.730957-52.5539551,9.7597656       c-1.8303223,0.1430664-3.6593018-0.2919922-5.2290039-1.2441406c-0.0257568-0.0224609-0.0362549-0.0576172-0.0269775-0.0908203       c0.8789062-2.6142578-3.2790527-1.6699219-4.7080078-2.6538086c-2.6831055-2.1259766-6.4420166-1.2553711-10-1.0263672       c0.0279541-1.0791016,0.0549316-2.1577148,0.0809326-3.2348633c-2.6999512,0.1118164-5.4069824,0.1411133-8.0999756,0.3569336       c-5.2719727,0.4199219-6.6619873-1.4848633-6.5620117-4.3710938       c-5.5219727-1.6660156-11.4239502-1.0957031-17.3339844-0.4848633       c-14.8499756,1.3398438-52.7149658,11.4350586-67.2659912,10.2470703       c-2.007019-0.1630859-3.5200195,1.4140625-5.177002,2.7470703c-1.8046875-0.1386719-3.6119995-0.2680664-5.4219971-0.3881836       c-1.7000122-1.8520508-3.7459717-4.277832-4.3099976-4.3071289c0.0859985-0.4277344,0.1569824-0.7548828,0.2120361-1       c-0.3600464,1.2543945-1.3630371,4.125-2.9360352,4.9121094l-0.3200073-0.0126953       c-9.9559937-0.4169922-19.7749634-1.5053711-29.6560059-2.2900391c-2.074646-0.0332031-4.1453247-0.1948242-6.2000122-0.484375       c-2.836792-0.4511719-5.7166138-0.5703125-8.5809937-0.3540039l-36.6060181-5.9707031       c-18.4909668-2.0761719-36.565979-1.6098633-53.4829712,5.9111328       c-0.7949829,0.5595703-1.5800171,1.1166992-2.3950195,1.6918945c-4.7779541,2.027832-8.7319946,4.4389648-9.625,8.2680664       c-3.0339966,1.1118164-4.5379639,2.7939453-4.7799683,4.9467773       c-7.3060303,5.9931641-17.4329834,5.9179688-20.2999878,13.3242188       c-4.9110107,3.6650391-10.3220215,7.0786133-14.0890503,11.3149414c0.7580566,0.019043,1.5580444,0,2.3580322-0.0102539       c4.1099854-0.0737305,8.2199707-0.1489258,6.6779785,4.4160156c-3.1385498,1.2041016-6.1733398,2.6630859-9.0739746,4.3623047       l-0.21698,0.0126953c-0.7840576,0.3413086-1.5859985,0.6640625-2.3480225,1.0332031       c-3.5999756,1.7480469-5.065979,3.2319336-4.4910278,4.8481445l-0.1439819,0.1796875       c-1.2880249-0.0151367-2.0999756-0.0581055-2.5739746-0.1000977c0.5549927,0.1943359,1.1569824,0.6923828,0.1489868,1.8183594       c-0.0419922,0,2.052002,0.2807617,4.9519653,0.6669922c0.0973511,0.0664062,0.1973877,0.1367188,0.3000488,0.2099609       c-1.3000488,2-3.2280273,3.9516602-4.4000244,4.2050781c2.7360229,1.855957-15.9119873,3.1835938-12.6469727,3.1279297       c0.7672119,0.0410156,1.5365601-0.0166016,2.2890015-0.1723633c0.7402344,0.1411133,1.4937134,0.2011719,2.2469482,0.1791992       c3.5930176,3.1650391,10.8790283,1.0561523,14.7860107,3.7651367c-0.9819946,0.487793-2.8219604,1.0317383-2.7999878,1.4550781       c0.2260132,4.4106445-4.9249878,5.3779297-10.5999756,6.2216797c3.4190063,2.6801758,4.0349731,5.4472656,4.4349976,8.2651367       l4.9729614,2.7001953c0.3804932,0.0307617,0.7571411,0.0976562,1.125,0.199707       c4.5150146,1.7661133-2.9939575,4.2880859,0.473999,6.6450195c1.0982666,0.6762695,1.9786987,1.6542969,2.5360107,2.8168945       c-0.2320557,0.0517578-0.4613647,0.1152344-0.6870117,0.1904297c-0.5709839-0.0649414-1.1484375-0.0463867-1.7139893,0.0556641       c-2.4349976,0.2348633-5.132019-0.3730469-7.0999756,1.3999023c2.9129639,0.3530273,5.6140137,1.4003906,8.7559814,1.012207       l0.2299805,0.027832c-0.2247314,0.2666016-0.4760742,0.5097656-0.75,0.7250977       c-0.4025879,1.3881836-1.3999023,2.5258789-2.7229614,3.1069336c-0.118042,0.4799805-0.2000122,0.9570312-0.3330078,1.4501953       c-0.7990112-0.3300781-1.6945801-0.3388672-2.5-0.0249023c-3.2109985,2.4228516,6.6749878,7.7368164,6.6749878,7.7368164       s-14.4619751,2.2138672-6.6749878,4.7441406c1.0390015,0.3369141,13.0999756,2.0839844,14.164978,2.3886719       c1.9750366-0.1206055,3.7590332,1.1074219,5.5499878,2.3349609c1.9110107,1.3110352,3.8310547,2.6220703,6,2.293457       c0.6600342,0.1870117,1.1640015,0.3408203,1.5390015,0.4619141c-1.4449463-0.7089844-3.8509521-2.4619141-1.5390015-5.090332       c0.0400391-0.0449219,0.0800171-0.0898438,0.1210327-0.1337891c2.0999756,1.5058594,4.3659668,2.8999023,6.5159912,4.3740234       c2.4260254,5.8828125,7.4710083,10.5200195,13.1549683,14.8520508       c0.2590332,1.7597656,1.4520264,3.0229492,3.7590332,3.6821289c0.1278076,0.4887695,0.3180542,0.9594727,0.565979,1.3999023       c-2.6629639,2.0317383-5.2999878,4.0830078-8.0739746,6.0507812c-6.0060425,4.2583008-5.4219971,6.7592773,2.3649902,9.2890625       c1.0419922,0.3378906,2.132019,0.6181641,3.2000122,0.9179688c1.7947998-0.046875,3.588562,0.1289062,5.3399658,0.5239258       c2.098999,0.5058594,4.2695312,0.6455078,6.4160156,0.4130859c2.2860107,0.6777344,4.6539917,1.0385742,7.0380249,1.0732422       c4.1682129,0.1796875,8.2011719-1.5004883,11.0089722-4.5864258c1.9459839-2.2128906,4.2360229-1.9467773,6.8610229-2.3886719       c11.9140015-2.0058594,23.8300171-1.2421875,35.7379761-1.6953125c6.3430176,2.5092773,13.5,0.8061523,20.1110229,0.2573242       c8.6599731-0.7192383,17.6759644-1.1953125,25.4469604-4.972168c3.8000488-1.8457031,9.9130249-2.5537109,12.8210449-1.684082       c8.572998,2.5673828,16.5529785,0.3613281,24.480957-1.1386719       c-19.4790039-0.2563477-33.1219482-0.7490234-26.2999878-1.4853516       c4.8666992-0.2543945,9.7333374-0.512207,14.6000366-0.7729492c0-0.5166016-0.0106812-1.0327148-0.0320435-1.5488281       c4.3240356-1.8461914,9.1069946-1.980957,13.9070435-2.2080078       c11.9450073-0.5629883,23.8939819-1.1362305,35.8339233-1.8632812       c4.7000732-0.284668,9.6380615-0.0917969,13.8530273-2.2148438l45.7160645-2.3911133       c1.605957,3.1723633,5.0999756,2.8291016,8.5999756,2.4863281c1.2719727-0.1572266,2.5535889-0.2241211,3.8349609-0.2001953       c0.8077393,0.027832,1.616333,0,2.4200439-0.0839844c17.5789795-1.3730469,35.2070312-1,52.8070068-3.8671875       c3.7659912-0.4433594,7.5706787-0.4501953,11.3380127-0.0185547c3.3458252,0.3325195,6.7130127,0.3959961,10.0689697,0.1889648       c6.460083-0.5703125,12.7790527-1.1333008,18.0500488-4.144043c-2.166626,0.1049805-4.333374,0.2089844-6.5,0.3120117       l-0.1800537-3.0463867c1.7487793-0.199707,3.4960938-0.402832,5.2420654-0.6088867l13,0.5161133       c2.0428467,0.4580078,4.18396,0.0419922,5.9069824-1.1469727l6.9169922-0.3242188       c0.7143555,0.300293,1.4842529,0.4458008,2.2590332,0.4272461c4.1704102,0.5600586,8.3812256,0.7607422,12.5859375,0.6000977       c3.9909668-0.1420898,7.9869385,0.0249023,11.9520264,0.5c0.9909668,0.1450195,2.9770508-0.1669922,2.5379639-1.1132812       c-1.9459229-4.1948242,3.3699951-3.3256836,6.3000488-3.7509766c4.4749756-0.6479492,7.5799561-1.8901367,7.9389648-5.0717773       C1263.9428711-4620.9404297,1261.9160156-4620.8652344,1259.9036865-4620.6352539 M969.9956665-4729.8115234       c-16.7579956-0.0229492-11.6500244-0.171875,1.6309814-0.3110352L969.9956665-4729.8115234z M994.9036865-4729.8115234       c-0.2876587-0.0957031-0.5454712-0.2641602-0.7480469-0.4897461l2.1480103-0.0102539       C995.8635254-4730.078125,995.3919678-4729.909668,994.9036865-4729.8115234 M1039.0356445-4729.7294922       c-8.8916016,0.3173828-17.7941895,0.1020508-26.6599731-0.6450195       c2.5209961-0.0048828,4.9799805-0.0078125,7.3429565-0.0078125       C1037.4986572-4730.3823242,1049.6846924-4730.2226562,1039.0356445-4729.7294922"/>
				</g>
			</g>
		</g>
	</g>
</g>
</svg>